# xmcd
#
# Track frame offsets: 
#        150
#        18250
#        38373
#        57308
#        84766
#        105623
#        135533
#        158282
#        185030
#        206099
#        231224
#
# Disc length: 3389 seconds
#
# Revision: 3
# Processed by: cddbd v1.5.2PL0 Copyright (c) Steve Scherf et al.
# Submitted via: ExactAudioCopy v1.0b6
#
DISCID=7d0d3b0b
DTITLE=Gallagher, Rory - Stage Struck
DYEAR=1980
DGENRE=Blues
TTITLE0=Shin Kicker
TTITLE1=Wayward Child
TTITLE2=Brute Force And Ignorance
TTITLE3=Moonchild
TTITLE4=Hellcat *
TTITLE5=Bad Penny *
TTITLE6=Keychain *
TTITLE7=Follow Me
TTITLE8=Bought And Sold
TTITLE9=The Last Of The Independents
TTITLE10=Shadow Play
EXTD=CD 2013 - digitally remastered, 2013\nSony/Capo/Legacy - 8 88837 
EXTD=64092 3
EXTT0=
EXTT1=
EXTT2=
EXTT3=
EXTT4=[Bonus Track] aka: Hell Cat
EXTT5=[Bonus Track]
EXTT6=[Bonus Track] aka: Key Chain
EXTT7=
EXTT8=
EXTT9=
EXTT10=
PLAYORDER=
